<?xml version="1.0" standalone="no"?>
<!DOCTYPE svg PUBLIC "-//W3C//DTD SVG 20010904//EN"
 "http://www.w3.org/TR/2001/REC-SVG-20010904/DTD/svg10.dtd">
<svg version="1.0" xmlns="http://www.w3.org/2000/svg"
 width="512.000000pt" height="512.000000pt" viewBox="0 0 512.000000 512.000000"
 preserveAspectRatio="xMidYMid meet">
<metadata>
Created by potrace 1.14, written by Peter Selinger 2001-2017
</metadata>
<g transform="translate(0.000000,512.000000) scale(0.100000,-0.100000)"
fill="#000000" stroke="none">
<path d="M2266 4789 c-309 -35 -539 -100 -756 -212 -190 -98 -307 -184 -457
-335 -212 -215 -364 -482 -469 -827 -10 -33 -19 -69 -21 -80 -2 -11 -8 -38
-14 -60 -6 -22 -13 -50 -15 -62 -2 -13 -6 -35 -9 -50 -31 -170 -40 -291 -39
-548 0 -200 6 -279 30 -445 49 -326 172 -650 344 -905 27 -40 55 -79 62 -86 7
-8 31 -36 52 -63 51 -63 141 -152 216 -216 70 -57 204 -150 219 -150 5 0 11
-4 13 -8 5 -12 154 -86 253 -125 141 -56 337 -108 460 -123 22 -3 50 -7 63
-10 111 -23 564 -23 702 0 14 3 43 7 65 10 107 13 393 85 420 105 6 4 38 18
72 30 l62 23 48 -35 c182 -133 467 -310 598 -372 139 -65 169 -75 265 -81 154
-11 283 68 353 216 26 54 31 77 31 135 -1 180 -88 273 -416 448 -72 39 -265
152 -276 162 -2 2 24 40 57 85 34 44 61 82 61 85 0 2 13 23 29 47 42 62 127
235 167 341 52 136 106 348 129 512 4 22 8 51 11 65 22 134 23 627 0 737 -3
12 -7 46 -10 75 -5 43 -40 220 -61 311 -2 10 -23 72 -45 139 -166 488 -485
855 -931 1071 -126 61 -330 129 -452 151 -15 3 -35 7 -45 10 -18 5 -56 11
-137 21 -27 4 -61 9 -75 11 -44 9 -482 12 -554 3z m464 -814 c412 -77 694
-358 814 -810 14 -49 27 -108 30 -130 4 -22 8 -47 11 -55 10 -39 18 -181 19
-335 0 -153 -3 -205 -20 -355 -8 -71 -53 -246 -87 -334 -37 -99 -100 -216
-153 -284 -1 -2 -42 22 -91 54 -350 228 -568 326 -728 328 -62 1 -91 -4 -126
-20 -153 -71 -225 -243 -159 -379 40 -83 82 -113 335 -245 165 -85 206 -109
190 -111 -6 0 -19 -2 -30 -5 -87 -18 -252 -23 -355 -11 -351 43 -665 310 -807
686 -36 95 -72 254 -87 383 -14 113 -14 482 -1 578 33 237 113 467 222 638 47
73 181 208 259 260 92 63 228 119 331 138 15 3 46 9 68 13 45 9 312 6 365 -4z"/>
</g>
</svg>
